<svg width="40" height="40" viewBox="0 0 40 40" fill="none" xmlns="http://www.w3.org/2000/svg">
<path d="M14.9519 27.1066V19.8638L12.8415 20.5246V19.0086L16.63 17.9203V27.1066H14.9519Z" fill="white"/>
<path d="M23.0158 27.3009C22.3038 27.3009 21.6809 27.1109 21.147 26.7308C20.613 26.3421 20.1977 25.7979 19.9011 25.0983C19.6129 24.39 19.4689 23.5564 19.4689 22.5976C19.4689 21.6475 19.6129 20.8182 19.9011 20.1099C20.1977 19.4016 20.613 18.8575 21.147 18.4774C21.6809 18.0887 22.3038 17.8943 23.0158 17.8943C23.7277 17.8943 24.3506 18.0887 24.8846 18.4774C25.4185 18.8575 25.8296 19.4016 26.1177 20.1099C26.4144 20.8182 26.5627 21.6475 26.5627 22.5976C26.5627 23.5564 26.4144 24.39 26.1177 25.0983C25.8296 25.7979 25.4185 26.3421 24.8846 26.7308C24.3506 27.1109 23.7277 27.3009 23.0158 27.3009ZM23.0158 25.772C23.5751 25.772 24.0201 25.4913 24.3506 24.9298C24.6897 24.3684 24.8592 23.591 24.8592 22.5976C24.8592 21.6043 24.6897 20.8269 24.3506 20.2654C24.0201 19.704 23.5751 19.4232 23.0158 19.4232C22.4564 19.4232 22.0072 19.704 21.6682 20.2654C21.3377 20.8269 21.1724 21.6043 21.1724 22.5976C21.1724 23.591 21.3377 24.3684 21.6682 24.9298C22.0072 25.4913 22.4564 25.772 23.0158 25.772Z" fill="white"/>
<path fill-rule="evenodd" clip-rule="evenodd" d="M15.9753 3.82981L18.8239 7.08354C17.6405 7.28009 16.3826 7.59107 15.1694 8.00223C13.2737 8.64464 11.397 9.5618 10.0788 10.7467C7.55633 13.0141 5.85475 16.0797 5.2473 19.4511C4.63986 22.8226 5.1618 26.3043 6.72932 29.3371C8.29684 32.3699 10.819 34.7778 13.8906 36.174C16.9623 37.5703 20.4053 37.8739 23.6667 37.0361C26.928 36.1984 29.8185 34.2678 31.8738 31.5545C33.9292 28.8412 35.0302 25.5026 35 22.0749C34.9951 21.5233 34.5524 21.0801 34.0112 21.0851C33.4699 21.09 33.0351 21.5412 33.0399 22.0929C33.0662 25.0726 32.109 27.9749 30.3223 30.3337C28.5355 32.6924 26.0228 34.3707 23.1876 35.099C20.3524 35.8273 17.3594 35.5633 14.6891 34.3495C12.0188 33.1357 9.82627 31.0425 8.46359 28.406C7.10091 25.7696 6.64717 22.7428 7.17523 19.8119C7.7033 16.881 9.18253 14.2161 11.3754 12.245C12.4148 11.3107 14.0132 10.4993 15.7878 9.89793C16.6461 9.60708 17.5245 9.37243 18.37 9.19844L15.9763 11.9979L17.4541 13.3104L21.5547 8.5147C21.8792 8.13523 21.8759 7.56899 21.5471 7.19342L17.4379 2.49976L15.9753 3.82981ZM21.6858 3.75779L24.9013 7.83222L21.6809 11.5913L23.1575 12.9053L26.9181 8.51551C27.2307 8.15068 27.2414 7.6099 26.9436 7.2325L23.2132 2.50571L21.6858 3.75779Z" fill="white"/>
</svg>
