<svg width="40" height="40" viewBox="0 0 40 40" fill="none" xmlns="http://www.w3.org/2000/svg">
<path d="M15.5489 27.1066V19.8638L13.4385 20.5246V19.0086L17.227 17.9203V27.1066H15.5489Z" fill="white"/>
<path d="M23.6128 27.3009C22.9009 27.3009 22.2779 27.1109 21.744 26.7308C21.21 26.3421 20.7947 25.7979 20.4981 25.0983C20.2099 24.39 20.0659 23.5564 20.0659 22.5976C20.0659 21.6475 20.2099 20.8182 20.4981 20.1099C20.7947 19.4016 21.21 18.8575 21.744 18.4774C22.2779 18.0887 22.9009 17.8943 23.6128 17.8943C24.3247 17.8943 24.9476 18.0887 25.4816 18.4774C26.0155 18.8575 26.4266 19.4016 26.7147 20.1099C27.0114 20.8182 27.1597 21.6475 27.1597 22.5976C27.1597 23.5564 27.0114 24.39 26.7147 25.0983C26.4266 25.7979 26.0155 26.3421 25.4816 26.7308C24.9476 27.1109 24.3247 27.3009 23.6128 27.3009ZM23.6128 25.772C24.1722 25.772 24.6171 25.4913 24.9476 24.9298C25.2867 24.3684 25.4562 23.591 25.4562 22.5976C25.4562 21.6043 25.2867 20.8269 24.9476 20.2654C24.6171 19.704 24.1722 19.4232 23.6128 19.4232C23.0534 19.4232 22.6042 19.704 22.2652 20.2654C21.9347 20.8269 21.7694 21.6043 21.7694 22.5976C21.7694 23.591 21.9347 24.3684 22.2652 24.9298C22.6042 25.4913 23.0534 25.772 23.6128 25.772Z" fill="white"/>
<path fill-rule="evenodd" clip-rule="evenodd" d="M24.0259 3.82981L21.1773 7.08354C22.3607 7.28009 23.6186 7.59107 24.8319 8.00223C26.7275 8.64464 28.6042 9.5618 29.9224 10.7467C32.4449 13.0141 34.1465 16.0797 34.7539 19.4511C35.3614 22.8226 34.8394 26.3043 33.2719 29.3371C31.7044 32.3699 29.1823 34.7778 26.1106 36.174C23.0389 37.5703 19.5959 37.8739 16.3346 37.0361C13.0732 36.1984 10.1827 34.2678 8.12738 31.5545C6.07202 28.8412 4.97102 25.5026 5.00122 22.0749C5.00608 21.5233 5.4488 21.0801 5.99006 21.0851C6.53133 21.09 6.96617 21.5412 6.96131 22.0929C6.93506 25.0726 7.89218 27.9749 9.67895 30.3337C11.4657 32.6924 13.9785 34.3707 16.8136 35.099C19.6488 35.8273 22.6419 35.5633 25.3121 34.3495C27.9824 33.1357 30.175 31.0425 31.5376 28.406C32.9003 25.7696 33.3541 22.7428 32.826 19.8119C32.2979 16.881 30.8187 14.2161 28.6259 12.245C27.5865 11.3107 25.9881 10.4993 24.2134 9.89793C23.3551 9.60708 22.4767 9.37243 21.6312 9.19844L24.0249 11.9979L22.5472 13.3104L18.4465 8.5147C18.122 8.13523 18.1253 7.56899 18.4541 7.19342L22.5634 2.49976L24.0259 3.82981ZM18.3154 3.75779L15.0999 7.83222L18.3203 11.5913L16.8438 12.9053L13.0831 8.51551C12.7705 8.15068 12.7598 7.6099 13.0577 7.2325L16.788 2.50571L18.3154 3.75779Z" fill="white"/>
</svg>
